<svg width="160" height="56" viewBox="0 0 160 56" fill="none" xmlns="http://www.w3.org/2000/svg">
<path d="M44.248 7.408C44.248 6.288 43.736 5.232 42.712 4.24C41.24 2.832 39.208 2.128 36.616 2.128C34.344 2.128 31.832 2.624 29.08 3.616C27.64 4.128 26.392 4.832 25.336 5.728C23.704 7.136 22.888 8.544 22.888 9.952C22.888 11.84 24.088 13.536 26.488 15.04C27.384 15.584 29.176 16.48 31.864 17.728C34.584 18.944 36.568 19.936 37.816 20.704C39.704 21.856 41 23.088 41.704 24.4C42.44 25.712 42.808 26.928 42.808 28.048C42.808 29.648 42.28 31.28 41.224 32.944C39.368 35.92 36.648 38.48 33.064 40.624C28.936 43.12 23.96 44.368 18.136 44.368C12.536 44.368 8.088 42.944 4.792 40.096C2.232 37.92 0.952 35.12 0.952 31.696C0.952 29.52 1.736 27.12 3.304 24.496C4.904 21.872 6.856 20.016 9.16 18.928C9.64 18.736 9.992 18.672 10.216 18.736C10.472 18.8 10.28 19.104 9.64 19.648C8.264 20.736 7.16 21.936 6.328 23.248C4.536 26.064 3.64 29.12 3.64 32.416C3.64 34.592 4.248 36.496 5.464 38.128C7.64 41.04 11.416 42.688 16.792 43.072C17.4 43.136 18.296 43.168 19.48 43.168C20.696 43.168 22.328 42.944 24.376 42.496C26.456 42.08 28.456 41.376 30.376 40.384C34.504 38.208 37.176 35.392 38.392 31.936C38.776 30.912 38.968 29.92 38.968 28.96C38.968 26.784 37.992 24.864 36.04 23.2C34.984 22.368 32.824 21.264 29.56 19.888C26.328 18.48 24.152 17.408 23.032 16.672C20.568 15.008 19.336 13.04 19.336 10.768C19.336 8.784 20.44 6.848 22.648 4.96C25.816 2.272 30.296 0.927999 36.088 0.927999C38.808 0.927999 41.016 1.344 42.712 2.176C44.44 2.976 45.496 4.192 45.88 5.824C45.944 6.144 45.976 6.464 45.976 6.784C45.976 8.032 45.4 9.152 44.248 10.144C43.448 10.784 42.376 11.296 41.032 11.68C40.456 11.84 40.136 11.776 40.072 11.488C40.008 11.072 40.408 10.816 41.272 10.72C42.808 10.528 43.752 9.76 44.104 8.416C44.2 8.064 44.248 7.728 44.248 7.408ZM55.7376 23.2C58.0736 23.2 59.2416 24.672 59.2416 27.616C59.2416 28.96 58.8896 30.4 58.1856 31.936C57.2896 34.016 55.9456 35.904 54.1536 37.6C54.5696 38.4 55.3216 38.8 56.4096 38.8C57.2736 38.8 58.0896 38.368 58.8576 37.504C59.8176 36.512 60.5056 35.648 60.9216 34.912C61.3376 34.144 61.6416 33.584 61.8336 33.232C62.0256 32.88 62.2656 32.384 62.5536 31.744C62.8736 31.072 63.0656 30.672 63.1296 30.544C63.1936 30.384 63.3056 30.304 63.4656 30.304C63.7856 30.272 63.9456 30.384 63.9456 30.64C63.9456 30.736 63.9136 30.848 63.8496 30.976L63.5616 31.648C63.3696 32.096 63.2256 32.416 63.1296 32.608C63.0336 32.8 62.8576 33.152 62.6016 33.664C62.3776 34.144 62.1696 34.528 61.9776 34.816C61.8176 35.104 61.5776 35.488 61.2576 35.968C60.9696 36.448 60.6976 36.832 60.4416 37.12C60.2176 37.408 59.9296 37.728 59.5776 38.08C59.2256 38.432 58.8896 38.704 58.5696 38.896C57.7696 39.376 57.0176 39.616 56.3136 39.616C55.0016 39.616 53.9776 39.2 53.2416 38.368C51.7696 39.456 50.4096 40 49.1616 40C46.8256 40 45.6576 38.528 45.6576 35.584C45.6576 34.24 46.0096 32.8 46.7136 31.264C47.6736 29.024 49.0176 27.12 50.7456 25.552C52.5056 23.984 54.1696 23.2 55.7376 23.2ZM56.2656 24.688C55.4016 24.688 54.3776 25.264 53.1936 26.416C52.0096 27.568 50.9536 29.136 50.0256 31.12C48.9056 33.424 48.3456 35.312 48.3456 36.784C48.3456 38.256 48.9056 38.992 50.0256 38.992C50.8256 38.992 51.7216 38.56 52.7136 37.696C52.2016 36.96 51.9456 36.176 51.9456 35.344C52.0096 33.968 52.5696 33.28 53.6256 33.28C54.0416 33.28 54.3776 33.424 54.6336 33.712C54.9216 34 55.0656 34.272 55.0656 34.528C55.0656 34.752 55.0336 34.992 54.9696 35.248C55.5136 34.448 56.1376 33.312 56.8416 31.84C57.6416 30.208 58.0416 28.608 58.0416 27.04C58.0416 25.472 57.4496 24.688 56.2656 24.688ZM77.5758 24.256C73.6398 31.168 71.6718 35.68 71.6718 37.792C71.6718 38.624 71.9758 39.04 72.5838 39.04C74.2158 39.04 76.4078 36.272 79.1598 30.736C79.3518 30.288 79.5438 30.112 79.7358 30.208C79.9278 30.304 80.0238 30.432 80.0238 30.592C80.0238 30.752 79.9598 30.944 79.8318 31.168C78.1358 34.592 76.6958 36.96 75.5118 38.272C74.3598 39.552 73.1918 40.192 72.0078 40.192C70.8558 40.192 69.9758 39.744 69.3678 38.848C69.0478 38.432 68.8878 37.872 68.8878 37.168C68.8878 36.432 69.0478 35.552 69.3678 34.528C69.6878 33.504 70.5678 31.84 72.0078 29.536C72.3598 28.96 72.5358 28.512 72.5358 28.192C72.5358 27.84 72.2638 27.664 71.7198 27.664C71.1758 27.664 70.1358 28.384 68.5998 29.824C66.2958 31.936 64.0718 35.104 61.9277 39.328C61.7358 39.648 61.5118 39.856 61.2558 39.952C61.0318 40.016 60.5677 40.064 59.8637 40.096C59.1597 40.128 58.6957 40.208 58.4717 40.336C58.9837 39.312 59.9917 37.216 61.4958 34.048C64.1838 28.448 65.9438 25.248 66.7758 24.448C67.1598 24.064 67.6878 23.872 68.3598 23.872C68.4878 23.872 68.8078 23.92 69.3198 24.016C69.8638 24.112 70.2638 24.128 70.5198 24.064C69.3358 24.704 67.3998 27.712 64.7118 33.088C66.2158 31.232 67.5758 29.76 68.7918 28.672C70.0398 27.552 71.5278 26.528 73.2558 25.6C74.9838 24.64 76.2478 24.16 77.0478 24.16C77.2398 24.16 77.4158 24.192 77.5758 24.256ZM75.8459 55.168C72.8379 55.168 71.3339 53.936 71.3339 51.472C71.3339 49.424 72.7259 47.584 75.5099 45.952C77.8779 44.576 80.9019 43.28 84.5819 42.064C86.2779 41.52 87.5099 41.088 88.2779 40.768C89.1099 38.336 89.5259 35.68 89.5259 32.8C89.5259 32.224 89.4939 31.792 89.4299 31.504C88.5339 33.328 87.3019 35.2 85.7339 37.12C83.8779 39.424 82.0379 40.32 80.2139 39.808C78.5499 39.104 77.7179 37.728 77.7179 35.68C77.7179 32.928 79.0939 29.904 81.8459 26.608C83.3499 24.816 85.1099 23.68 87.1259 23.2C87.6699 23.04 88.2139 22.96 88.7579 22.96C90.1979 22.96 91.6059 23.44 92.9819 24.4C93.4939 24.816 93.7499 25.168 93.7499 25.456C93.7499 25.744 93.6539 26.032 93.4619 26.32C93.2699 26.576 93.0619 26.608 92.8379 26.416C92.6459 26.192 92.5179 25.984 92.4539 25.792C92.0379 24.608 91.3659 24.016 90.4379 24.016C88.7419 24.016 86.8379 25.2 84.7259 27.568C83.5419 28.912 82.5179 30.352 81.6539 31.888C80.5979 33.808 80.0699 35.296 80.0699 36.352C80.0699 37.376 80.3899 38.064 81.0299 38.416C81.2539 38.512 81.4779 38.56 81.7019 38.56C82.4379 38.56 83.3499 38.064 84.4379 37.072C85.5579 36.048 86.5819 34.768 87.5099 33.232C88.4699 31.664 89.0779 30.448 89.3339 29.584C89.5899 28.72 89.8939 28.176 90.2459 27.952C90.6299 27.728 91.0459 27.6 91.4939 27.568C91.9419 27.536 92.2459 27.456 92.4059 27.328C92.6619 28.768 92.7899 30.464 92.7899 32.416C92.7899 34.336 92.4539 36.528 91.7819 38.992C93.2539 37.936 94.2939 36.992 94.9019 36.16C95.5419 35.328 96.0379 34.576 96.3899 33.904C96.7739 33.232 97.1099 32.576 97.3979 31.936C97.6859 31.264 97.8779 30.832 97.9739 30.64C98.0699 30.448 98.2299 30.336 98.4539 30.304C98.6779 30.24 98.7899 30.336 98.7899 30.592C98.7899 30.752 98.7419 30.944 98.6459 31.168C97.2379 34.08 96.0539 36.192 95.0939 37.504C94.1659 38.784 92.8859 39.808 91.2539 40.576C90.4859 42.752 89.3659 44.912 87.8939 47.056C86.4539 49.2 84.6299 51.088 82.4219 52.72C80.2139 54.352 78.0219 55.168 75.8459 55.168ZM72.3419 52.384C72.3419 53.6 73.1259 54.208 74.6939 54.208C75.6219 54.208 76.6619 53.936 77.8139 53.392C78.9979 52.848 79.9739 52.288 80.7419 51.712C82.0539 50.656 83.4939 49.088 85.0619 47.008C86.2459 45.344 87.1579 43.728 87.7979 42.16L86.1179 42.736C81.1259 44.464 77.6059 46 75.5579 47.344C74.0539 48.336 73.0619 49.6 72.5819 51.136C72.4219 51.616 72.3419 52.032 72.3419 52.384Z" fill="white"/>
<path d="M110.051 26.944C110.051 25.12 109.299 24.208 107.795 24.208C107.667 24.208 107.539 24.208 107.411 24.208C106.835 24.272 106.499 24.16 106.403 23.872C106.307 23.584 106.451 23.392 106.835 23.296C107.219 23.2 107.635 23.184 108.083 23.248C109.747 23.504 110.883 24.288 111.491 25.6C111.907 26.4 112.115 27.184 112.115 27.952C112.115 30.704 111.107 33.408 109.091 36.064C107.075 38.752 104.467 40.096 101.267 40.096C100.083 40.096 99.1228 39.76 98.3867 39.088C97.6508 38.416 97.2828 37.52 97.2828 36.4C97.2828 35.056 98.0508 32.784 99.5868 29.584C96.9628 34.544 95.2668 37.392 94.4987 38.128C94.1787 38.416 94.0187 38.32 94.0187 37.84C94.0187 37.744 94.0507 37.632 94.1147 37.504C95.2347 36.032 97.4588 32.032 100.787 25.504C104.147 18.976 106.499 14.704 107.843 12.688C108.931 11.12 109.987 10.336 111.011 10.336C111.011 10.336 111.027 10.336 111.059 10.336H111.299C111.331 10.336 111.603 10.384 112.115 10.48C112.659 10.576 113.059 10.592 113.315 10.528C112.259 11.648 110.595 13.888 108.323 17.248C102.691 25.6 99.8748 31.84 99.8748 35.968C99.8748 37.664 100.419 38.624 101.507 38.848C101.603 38.88 101.715 38.896 101.843 38.896C102.835 38.896 104.067 38.016 105.539 36.256C107.043 34.464 108.275 32.432 109.235 30.16C109.779 28.976 110.051 27.904 110.051 26.944ZM121.078 21.328C120.63 21.712 120.134 21.904 119.59 21.904C119.046 21.904 118.614 21.712 118.294 21.328C117.974 20.944 117.846 20.48 117.91 19.936C118.006 19.392 118.278 18.928 118.726 18.544C119.174 18.16 119.67 17.968 120.214 17.968C120.758 17.968 121.19 18.16 121.51 18.544C121.862 18.928 121.99 19.392 121.894 19.936C121.798 20.48 121.526 20.944 121.078 21.328ZM116.374 38.944C116.982 38.944 117.622 38.64 118.294 38.032C119.478 36.848 120.982 34.432 122.806 30.784C123.03 30.304 123.254 30.16 123.478 30.352C123.542 30.416 123.574 30.528 123.574 30.688C123.574 30.816 123.446 31.168 123.19 31.744C122.934 32.288 122.694 32.784 122.47 33.232C122.278 33.68 121.878 34.416 121.27 35.44C120.694 36.432 120.166 37.2 119.686 37.744C118.374 39.248 117.126 40 115.942 40C114.79 40 113.958 39.648 113.446 38.944C112.934 38.24 112.678 37.456 112.678 36.592C112.678 35.728 112.886 34.784 113.302 33.76L116.374 25.936C116.438 25.744 116.47 25.488 116.47 25.168C116.47 24.848 116.278 24.432 115.894 23.92L118.534 23.872C119.27 23.872 119.702 24.016 119.83 24.304C119.958 24.56 119.862 24.976 119.542 25.552L115.702 34.528C115.158 35.712 114.886 36.72 114.886 37.552C114.886 38.48 115.382 38.944 116.374 38.944ZM129.325 20.752C129.325 22.192 128.413 23.552 126.589 24.832C127.229 24.864 128.077 24.88 129.133 24.88C130.221 24.88 131.581 24.8 133.213 24.64C133.277 24.736 133.309 24.992 133.309 25.408C133.309 25.824 133.117 26.448 132.733 27.28C132.349 28.08 131.997 28.784 131.677 29.392C131.389 29.968 131.101 30.528 130.813 31.072C130.557 31.584 130.253 32.224 129.901 32.992C129.581 33.76 129.309 34.464 129.085 35.104C128.285 37.536 128.413 38.752 129.469 38.752C130.813 38.752 132.797 36.08 135.421 30.736C135.645 30.32 135.821 30.16 135.949 30.256C136.109 30.352 136.189 30.48 136.189 30.64C136.189 30.768 135.981 31.264 135.565 32.128C135.149 32.96 134.701 33.824 134.221 34.72C133.741 35.616 132.989 36.656 131.965 37.84C130.749 39.312 129.581 40.048 128.461 40.048C127.213 40.048 126.349 39.296 125.869 37.792C125.773 37.504 125.725 37.072 125.725 36.496C125.725 35.92 125.901 35.152 126.253 34.192C126.637 33.232 127.229 32.064 128.029 30.688C128.829 29.312 129.277 28.512 129.373 28.288C129.469 28.032 129.517 27.792 129.517 27.568C129.517 26.576 128.237 26.048 125.677 25.984L125.101 27.52C123.085 32.8 121.149 36.336 119.293 38.128C118.973 38.416 118.813 38.32 118.813 37.84C118.813 37.744 118.845 37.632 118.909 37.504C120.701 35.136 122.253 32.336 123.565 29.104C124.877 25.872 125.789 22.8 126.301 19.888C126.493 18.896 126.941 18.4 127.645 18.4C128.349 18.4 128.861 18.848 129.181 19.744C129.277 20.032 129.325 20.368 129.325 20.752ZM145.442 37.216C145.442 38.24 145.858 38.752 146.69 38.752C148.194 38.752 150.194 36.24 152.69 31.216C152.786 31.024 152.866 30.832 152.93 30.64C153.026 30.448 153.154 30.32 153.314 30.256C153.506 30.192 153.634 30.24 153.698 30.4C153.762 30.528 153.73 30.752 153.602 31.072C151.042 37.024 148.45 40 145.826 40C144.962 40 144.274 39.616 143.762 38.848C143.25 38.08 142.994 37.328 142.994 36.592C142.994 35.824 143.074 35.12 143.234 34.48C141.378 37.552 139.778 39.296 138.434 39.712C138.05 39.872 137.666 39.952 137.282 39.952C136.93 39.952 136.578 39.904 136.226 39.808C134.658 39.392 133.874 38.144 133.874 36.064C133.874 34.656 134.226 33.104 134.93 31.408C135.666 29.68 136.69 28.032 138.002 26.464C139.314 24.896 140.898 23.84 142.754 23.296C143.426 23.072 144.21 22.96 145.106 22.96C146.034 22.96 147.058 23.248 148.178 23.824C150.354 19.728 152.21 15.936 153.746 12.448C154.194 11.392 154.626 10.72 155.042 10.432C155.49 10.112 155.89 9.952 156.242 9.952C156.626 9.952 156.85 9.952 156.914 9.952C157.01 9.952 157.314 10 157.826 10.096C158.37 10.16 158.786 10.176 159.074 10.144C158.338 10.816 156.386 14.08 153.218 19.936C149.186 27.424 146.754 32.416 145.922 34.912C145.602 35.84 145.442 36.608 145.442 37.216ZM147.794 24.592C147.378 24.176 146.786 23.968 146.018 23.968C145.282 23.968 144.242 24.528 142.898 25.648C140.754 27.44 138.978 29.648 137.57 32.272C136.642 34 136.178 35.424 136.178 36.544C136.178 37.056 136.274 37.52 136.466 37.936C136.69 38.352 137.026 38.56 137.474 38.56C138.562 38.56 139.906 37.44 141.506 35.2C143.106 32.96 145.202 29.424 147.794 24.592Z" fill="#25957e"/>
</svg>
